<svg xmlns="http://www.w3.org/2000/svg" viewBox="0 0 64 64" role="img" aria-label="Find the Number">
  <rect width="64" height="64" rx="14" fill="#f7f1df" stroke="#2b2b2b" stroke-width="2"/>
  <path d="M32 11a3 3 0 0 1 3 3v1.3a13 13 0 0 1 9 12.4V36l3.1 6.2A2 2 0 0 1 45.3 45H18.7a2 2 0 0 1-1.8-2.8L20 36v-8.3a13 13 0 0 1 9-12.4V14a3 3 0 0 1 3-3z"
        fill="#ffd23f" stroke="#2b2b2b" stroke-width="3" stroke-linejoin="round"/>
  <path d="M27 47a5 5 0 0 0 10 0z" fill="#c0392b" stroke="#2b2b2b" stroke-width="3" stroke-linejoin="round"/>
</svg>
